<svg width="64" height="64" viewBox="0 0 64 64" fill="none" xmlns="http://www.w3.org/2000/svg">
<rect width="64" height="64" rx="32" fill="#52FFA8"/>
<g clip-path="url(#clip0_2_19)">
<path d="M40 20H24C22.9395 20.0013 21.9229 20.4232 21.173 21.173C20.4232 21.9229 20.0013 22.9395 20 24V40C20.0013 41.0605 20.4232 42.0771 21.173 42.827C21.9229 43.5768 22.9395 43.9987 24 44H40C41.0605 43.9987 42.0771 43.5768 42.827 42.827C43.5768 42.0771 43.9987 41.0605 44 40V24C43.9987 22.9395 43.5768 21.9229 42.827 21.173C42.0771 20.4232 41.0605 20.0013 40 20V20ZM27.5 38C27.1022 38 26.7206 37.842 26.4393 37.5607C26.158 37.2794 26 36.8978 26 36.5C26 36.1022 26.158 35.7206 26.4393 35.4393C26.7206 35.158 27.1022 35 27.5 35C27.8978 35 28.2794 35.158 28.5607 35.4393C28.842 35.7206 29 36.1022 29 36.5C29 36.8978 28.842 37.2794 28.5607 37.5607C28.2794 37.842 27.8978 38 27.5 38ZM27.5 29C27.1022 29 26.7206 28.842 26.4393 28.5607C26.158 28.2794 26 27.8978 26 27.5C26 27.1022 26.158 26.7206 26.4393 26.4393C26.7206 26.158 27.1022 26 27.5 26C27.8978 26 28.2794 26.158 28.5607 26.4393C28.842 26.7206 29 27.1022 29 27.5C29 27.8978 28.842 28.2794 28.5607 28.5607C28.2794 28.842 27.8978 29 27.5 29ZM32 33.5C31.6022 33.5 31.2206 33.342 30.9393 33.0607C30.658 32.7794 30.5 32.3978 30.5 32C30.5 31.6022 30.658 31.2206 30.9393 30.9393C31.2206 30.658 31.6022 30.5 32 30.5C32.3978 30.5 32.7794 30.658 33.0607 30.9393C33.342 31.2206 33.5 31.6022 33.5 32C33.5 32.3978 33.342 32.7794 33.0607 33.0607C32.7794 33.342 32.3978 33.5 32 33.5ZM36.5 38C36.1022 38 35.7206 37.842 35.4393 37.5607C35.158 37.2794 35 36.8978 35 36.5C35 36.1022 35.158 35.7206 35.4393 35.4393C35.7206 35.158 36.1022 35 36.5 35C36.8978 35 37.2794 35.158 37.5607 35.4393C37.842 35.7206 38 36.1022 38 36.5C38 36.8978 37.842 37.2794 37.5607 37.5607C37.2794 37.842 36.8978 38 36.5 38ZM36.5 29C36.1022 29 35.7206 28.842 35.4393 28.5607C35.158 28.2794 35 27.8978 35 27.5C35 27.1022 35.158 26.7206 35.4393 26.4393C35.7206 26.158 36.1022 26 36.5 26C36.8978 26 37.2794 26.158 37.5607 26.4393C37.842 26.7206 38 27.1022 38 27.5C38 27.8978 37.842 28.2794 37.5607 28.5607C37.2794 28.842 36.8978 29 36.5 29Z" fill="#202733"/>
</g>
<defs>
<clipPath id="clip0_2_19">
<rect width="24" height="24" fill="white" transform="translate(20 20)"/>
</clipPath>
</defs>
</svg>
